<svg width="17" height="17" xmlns="http://www.w3.org/2000/svg">
 <g id="svg_37">
  <svg fill="#ff0000" id="svg_35" viewBox="0 0 17 17" height="17" width="17">
   <title>placeholder</title>
   <desc>Created with Sketch.</desc>
   <g id="svg_38" fill-rule="evenodd" fill="none">
    <g id="svg_39" fill="#ffffff">
     <g id="svg_40">
      <g id="svg_41">
       <path id="svg_42" d="m11.333008,8.5c0,-0.781982 -0.276001,-1.450012 -0.830017,-2.002991c-0.552979,-0.554016 -1.219971,-0.830017 -2.002991,-0.830017c-0.781982,0 -1.450012,0.276001 -2.002991,0.830017c-0.554016,0.552979 -0.830017,1.220001 -0.830017,2.002991c0,0.781982 0.276001,1.450012 0.830017,2.002991c0.552979,0.554016 1.219971,0.830017 2.002991,0.830017c0.781982,0 1.450012,-0.276001 2.002991,-0.830017c0.554016,-0.552979 0.830017,-1.220001 0.830017,-2.002991zm5.666992,-1.205994v2.457001c0,0.089996 -0.030029,0.173981 -0.090027,0.254974c-0.057983,0.080017 -0.129944,0.130005 -0.219971,0.144012l-2.046997,0.309998c-0.140015,0.397003 -0.283997,0.733002 -0.432007,1.006012c0.26001,0.369995 0.653992,0.877991 1.184998,1.526978c0.073975,0.090027 0.109985,0.180023 0.109985,0.277008c0,0.096008 -0.031982,0.180023 -0.099976,0.255005c-0.197998,0.27301 -0.562988,0.670013 -1.093994,1.195007c-0.530029,0.524017 -0.877014,0.78598 -1.040039,0.78598c-0.087952,0 -0.18396,-0.03299 -0.287964,-0.099976l-1.526978,-1.195007c-0.325012,0.169983 -0.660034,0.309998 -1.007019,0.421997c-0.117981,1.003021 -0.225037,1.690002 -0.320007,2.058014c-0.052979,0.207001 -0.186035,0.309998 -0.400024,0.309998h-2.45697c-0.10199,0 -0.192017,-0.029999 -0.27002,-0.093994c-0.076965,-0.063019 -0.119995,-0.141998 -0.127014,-0.238007l-0.309998,-2.036011c-0.359985,-0.119995 -0.692993,-0.255005 -0.995972,-0.410004l-1.559998,1.18399c-0.074036,0.067017 -0.166992,0.100037 -0.277039,0.100037c-0.102966,0 -0.195984,-0.040009 -0.276978,-0.122009c-0.929993,-0.840027 -1.538025,-1.460022 -1.825989,-1.860016c-0.052002,-0.072998 -0.078003,-0.15799 -0.078003,-0.253998c0,-0.088013 0.030029,-0.173004 0.088013,-0.253998c0.109985,-0.154999 0.299988,-0.399994 0.563965,-0.735992c0.265991,-0.335999 0.465027,-0.596008 0.598022,-0.779999c-0.200012,-0.370026 -0.349976,-0.735016 -0.453979,-1.096008l-2.025024,-0.299988c-0.094971,-0.014008 -0.171997,-0.060028 -0.22998,-0.138c-0.059998,-0.076996 -0.090027,-0.164001 -0.090027,-0.26001v-2.457001c0,-0.089996 0.030029,-0.174011 0.090027,-0.255005c0.057983,-0.079987 0.127991,-0.130005 0.209961,-0.143982l2.057007,-0.309998c0.104004,-0.338013 0.247986,-0.678009 0.432007,-1.017029c-0.296021,-0.419983 -0.690002,-0.929993 -1.184998,-1.527985c-0.073975,-0.088013 -0.109985,-0.177002 -0.109985,-0.264984c0,-0.074005 0.031982,-0.160034 0.099976,-0.255005c0.190002,-0.265015 0.554016,-0.662018 1.090027,-1.190002c0.533997,-0.527008 0.881958,-0.790009 1.044983,-0.790009c0.096008,0 0.192017,0.036011 0.288025,0.110016l1.526978,1.18399c0.325012,-0.170013 0.660034,-0.309998 1.007019,-0.421997c0.117981,-1.003021 0.224976,-1.690002 0.320007,-2.058014c0.052979,-0.207001 0.185974,-0.309998 0.399963,-0.309998h2.457031c0.10199,0 0.191956,0.029999 0.269958,0.093994c0.077026,0.062988 0.119995,0.141998 0.127014,0.238007l0.309998,2.036011c0.359985,0.119995 0.692993,0.254974 0.996033,0.410004l1.57196,-1.184021c0.06604,-0.066986 0.155029,-0.099976 0.265015,-0.099976c0.096008,0 0.187988,0.036987 0.276978,0.109985c0.952026,0.880005 1.559998,1.506012 1.82605,1.881989c0.052002,0.059998 0.078003,0.140015 0.078003,0.244019c0,0.087982 -0.030029,0.173004 -0.088013,0.253998c-0.109985,0.154999 -0.299988,0.399994 -0.564026,0.735992c-0.265991,0.335999 -0.464966,0.596008 -0.597961,0.779999c0.191956,0.369995 0.342957,0.730011 0.453979,1.084991l2.025024,0.309998c0.094971,0.015015 0.171997,0.060028 0.22998,0.140015c0.059998,0.075989 0.089966,0.162994 0.089966,0.259979l-0.000977,-0.000977z"/>
      </g>
     </g>
    </g>
   </g>
  </svg>
 </g>
</svg>